<svg width="29" height="29" viewBox="0 0 29 29" fill="none" xmlns="http://www.w3.org/2000/svg">
<path d="M23.5589 9.65332L14.5 18.4838L5.44113 9.65332C5.27927 9.49523 5.062 9.40672 4.83575 9.40672C4.6095 9.40672 4.39223 9.49523 4.23038 9.65332C4.15201 9.7301 4.08975 9.82175 4.04724 9.9229C4.00474 10.024 3.98285 10.1327 3.98285 10.2424C3.98285 10.3521 4.00474 10.4607 4.04724 10.5619C4.08975 10.663 4.15201 10.7547 4.23038 10.8314L13.8674 20.2274C14.0367 20.3924 14.2637 20.4847 14.5 20.4847C14.7363 20.4847 14.9633 20.3924 15.1326 20.2274L24.7696 10.8333C24.8486 10.7564 24.9113 10.6645 24.9541 10.5631C24.9969 10.4616 25.019 10.3525 25.019 10.2424C25.019 10.1322 24.9969 10.0232 24.9541 9.9217C24.9113 9.82022 24.8486 9.72835 24.7696 9.6515C24.6078 9.49341 24.3905 9.40491 24.1643 9.40491C23.938 9.40491 23.7207 9.49341 23.5589 9.6515V9.65332Z" fill="#A5CBEE"/>
</svg>
