<svg width="73" height="73" viewBox="0 0 73 73" fill="none" xmlns="http://www.w3.org/2000/svg">
<ellipse cx="36" cy="36.5" rx="25" ry="25.5" fill="url(#paint0_linear_14_1039)"/>
<path d="M40.4876 14.8337C43.0293 12.7664 46.8571 14.1696 47.4604 17.3898C47.906 19.7679 50.0453 21.4473 52.4612 21.3155C55.7325 21.1369 58.0045 24.5221 56.5998 27.482C55.5625 29.6677 56.3061 32.2839 58.3381 33.5972C61.0896 35.3756 60.9379 39.4497 58.0618 41.0186C55.9378 42.1773 55.0017 44.7308 55.8736 46.9877C57.0543 50.0438 54.5369 53.2507 51.2878 52.8294C48.8885 52.5183 46.6302 54.0339 46.009 56.3723C45.1679 59.5387 41.2463 60.6534 38.8654 58.4028C37.1072 56.7408 34.3893 56.6396 32.5123 58.1663C29.9707 60.2336 26.1429 58.8303 25.5395 55.6101C25.094 53.2321 22.9546 51.5527 20.5388 51.6845C17.2674 51.863 14.9954 48.4779 16.4001 45.518C17.4375 43.3322 16.6938 40.7161 14.6619 39.4028C11.9103 37.6244 12.062 33.5502 14.9382 31.9813C17.0622 30.8227 17.9983 28.2692 17.1264 26.0123C15.9457 22.9562 18.4631 19.7493 21.7121 20.1706C24.1115 20.4817 26.3698 18.9661 26.9909 16.6277C27.832 13.4613 31.7536 12.3466 34.1345 14.5972C35.8928 16.2592 38.6106 16.3604 40.4876 14.8337Z" stroke="white" stroke-opacity="0.4" stroke-width="0.5"/>
<g filter="url(#filter0_d_14_1039)">
<path d="M27.3021 19.3525C32.1967 13.8435 40.8033 13.8435 45.6978 19.3525C46.8796 20.6826 48.3358 21.7406 49.9659 22.4534C56.7178 25.4061 59.3774 33.5914 55.6505 39.9488C54.7507 41.4837 54.1945 43.1956 54.0203 44.9663C53.2986 52.3001 46.3357 57.3589 39.1378 55.779C37.3999 55.3975 35.6 55.3975 33.8621 55.779C26.6642 57.3589 19.7014 52.3001 18.9797 44.9663C18.8054 43.1956 18.2492 41.4837 17.3494 39.9488C13.6226 33.5914 16.2821 25.4061 23.034 22.4534C24.6642 21.7406 26.1204 20.6826 27.3021 19.3525Z" fill="url(#paint1_linear_14_1039)"/>
<path d="M27.489 19.5185C32.2841 14.1215 40.7158 14.1215 45.5109 19.5185C46.7167 20.8757 48.2025 21.9551 49.8658 22.6825C56.4804 25.5751 59.086 33.5942 55.4349 39.8224C54.5168 41.3885 53.9492 43.1351 53.7715 44.9418C53.0644 52.1266 46.243 57.0826 39.1914 55.5348C37.4182 55.1456 35.5817 55.1456 33.8085 55.5348C26.7569 57.0826 19.9355 52.1266 19.2285 44.9418C19.0507 43.1351 18.4832 41.3885 17.5651 39.8224C13.914 33.5942 16.5195 25.5751 23.1342 22.6825C24.7975 21.9551 26.2832 20.8757 27.489 19.5185Z" stroke="white" stroke-width="0.5"/>
</g>
<path d="M38.7294 34.0481L37.9911 33.6786C37.4682 33.4169 36.8494 33.4208 36.3304 33.6897C35.6189 34.0553 35.2266 34.8445 35.3611 35.633C35.4609 36.2101 35.8265 36.7062 36.3533 36.968L37.0916 37.3374C37.6144 37.5992 38.2339 37.5953 38.7529 37.3257C39.4644 36.9601 39.8561 36.1716 39.7216 35.383C39.6217 34.806 39.2529 34.3092 38.7294 34.0481Z" fill="white"/>
<path d="M38.0257 40.4041C37.5681 41.3232 35.9845 41.3892 34.7573 40.7769C33.5307 40.1652 32.9079 38.9223 33.3695 38.0032C33.6156 37.5104 35.1959 36.8334 36.4225 37.4451C37.6451 38.0567 38.4833 39.4844 38.0257 40.4041Z" fill="white"/>
<path d="M35.9153 43.0859C35.4459 44.0246 34.2115 44.3555 33.154 43.8281C32.0965 43.3013 31.6239 42.1126 32.0887 41.1732C32.558 40.2345 33.423 40.8044 34.4805 41.3312C35.5419 41.8619 36.384 42.1472 35.9153 43.0859Z" fill="white"/>
<path d="M41.1062 41.5316L38.7875 39.7345C38.326 39.3768 38.1837 38.7762 38.4487 38.3186L38.903 37.5379C39.1681 37.0796 39.7601 36.8949 40.3026 37.1025L43.0671 38.1567C43.7558 38.4185 44.0743 39.1881 43.7323 39.7691L42.8367 41.2927C42.5018 41.8586 41.6826 41.9735 41.1062 41.5316Z" fill="white"/>
<path d="M38.0955 44.7941L36.7534 43.2784C36.4688 42.9546 36.6646 41.9389 36.9649 41.6739L38.4565 40.6196C38.7529 40.3539 39.2797 40.5426 39.5682 40.8657L40.864 42.2855C41.1486 42.6086 40.9945 43.2705 40.6949 43.5356L39.1524 44.9018C38.8528 45.1636 38.3834 45.1173 38.0955 44.7941Z" fill="white"/>
<path d="M31.6735 39.096L29.3627 38.6378C28.9129 38.5496 28.6244 38.0992 28.7321 37.6527L28.9547 36.7336C29.082 36.2101 29.6741 35.9522 30.1395 36.2179L32.2271 37.4027C32.4771 37.545 32.6312 37.8068 32.639 38.0914L32.6429 38.2879C32.6501 38.8036 32.1814 39.1959 31.6735 39.096Z" fill="white"/>
<path d="M39.8874 33.8556L37.6145 32.7204C37.4336 32.6323 37.3377 32.4318 37.3762 32.2354L37.7763 30.1582C37.8338 29.858 38.6145 29.5805 38.8795 29.7307L41.8366 31.7856C42.1095 31.9397 42.1402 32.3163 41.9019 32.5167L40.9482 33.6166C40.8137 33.7283 40.0447 33.9365 39.8874 33.8556Z" fill="white"/>
<path d="M32.9079 36.6103L29.7087 34.9483C29.4547 34.8132 29.3627 34.494 29.5128 34.2479C29.5128 34.2479 29.9391 32.8823 30.193 32.4821C30.3895 32.174 31.2042 31.4318 31.2042 31.4318C31.3661 31.1622 31.7349 31.108 31.9699 31.3202L34.8845 33.9822C35.0001 34.086 35.0575 34.24 35.0458 34.3941C35.0073 34.8249 34.9074 35.6944 34.6959 35.964C34.4883 36.2258 33.6769 36.5143 33.2963 36.6409C33.1658 36.6834 33.0274 36.6716 32.9079 36.6103Z" fill="white"/>
<path d="M32.216 47.5645C32.1044 47.7871 31.8354 47.8759 31.6122 47.7682C31.4124 47.6722 31.1931 47.5606 31.0854 47.4986C30.947 47.4183 30.6741 47.2407 30.447 47.0873C30.2433 46.9483 30.1852 46.6754 30.3164 46.4678L31.37 44.8287C31.4314 44.7321 31.5312 44.659 31.6429 44.6322C31.9157 44.567 32.4275 44.4632 32.6312 44.5709C32.7774 44.6479 32.9197 44.9632 33.0196 45.2406C33.1155 45.5096 33.0966 45.8059 32.9693 46.0599L32.216 47.5645Z" fill="white"/>
<path d="M35.2573 47.5528L34.2037 47.8641C33.6541 48.026 33.0848 47.6409 33.1658 47.1644L33.3884 45.8059C33.4386 45.5017 33.7422 45.2752 34.1117 45.2635L34.442 45.2517C34.7768 45.2406 35.0843 45.4097 35.2077 45.6676L35.707 46.7257C35.865 47.0599 35.6613 47.4333 35.2573 47.5528Z" fill="white"/>
<path d="M30.0932 45.2635L28.7746 43.486L30.0893 42.5858C30.4894 42.2274 31.1004 42.2587 31.462 42.6589L31.5006 42.7007C31.8583 43.1008 31.8276 43.7131 31.4275 44.0748L30.0932 45.2635Z" fill="white"/>
<path d="M28.8705 39.7345L31.712 39.6189C31.9966 39.6078 32.2121 39.927 32.135 40.2423C32.1083 40.354 32.0469 40.4499 31.962 40.5158L30.6395 41.5081C30.5893 41.5466 30.5971 41.5466 30.4737 41.6393L29.1473 42.5969C28.9012 42.6393 28.5284 41.6621 28.5167 41.3736L28.4703 40.2384C28.4592 39.9695 28.6361 39.7423 28.8705 39.7345Z" fill="white"/>
<path d="M44.1592 37.6874L42.0331 37.1645C41.4175 37.0104 41.2948 36.9491 40.706 36.7337C40.706 36.7337 40.11 36.2604 39.9677 36.0561C39.6642 35.6213 40.3137 34.7212 40.6636 34.494L42.4483 33.3477C42.8941 33.0631 43.5286 33.3706 43.7825 33.9901L44.4438 35.6292C44.686 36.2408 44.6781 37.5993 44.1592 37.6874Z" fill="white"/>
<path d="M34.2076 33.1897L32.7043 30.9272C32.4197 30.4963 32.7539 29.8847 33.3427 29.758L34.9844 29.4075C35.3879 29.3194 36.5531 29.3618 36.6647 29.7L37.0688 32.1355C37.1876 32.5089 36.4956 32.909 36.0648 33.0781L35.1881 33.4247C34.8075 33.5748 34.4002 33.4743 34.2076 33.1897Z" fill="white"/>
<path d="M29.3973 49.1997C29.3973 49.1997 30.2009 50.3727 31.9581 50.2461C31.9581 50.2461 30.1545 52.2084 29.7393 52.5315C28.6015 53.4199 28.6283 50.7422 29.3973 49.1997Z" fill="white"/>
<path d="M36.6914 46.7257C36.6914 46.7257 35.1 45.2824 35.2037 44.6518C35.2534 44.3515 35.8493 43.9821 36.303 43.7399C36.5837 43.5897 36.9303 43.7053 37.0726 43.986C37.2071 44.2556 37.3644 44.5669 37.4532 44.7132C37.7953 45.2713 37.7143 45.9867 37.1836 46.3673L36.6914 46.7257Z" fill="white"/>
<path d="M28.5591 35.4444L27.3365 34.8634L28.4012 32.3587L29.4051 32.6244L28.5591 35.4444Z" fill="white"/>
<path d="M28.3626 38.5379L26.8978 38.6189C26.8978 38.6189 26.7823 37.549 26.8364 37.1991C26.9017 36.7911 27.4089 35.6448 27.4089 35.6448L28.5206 35.7676L28.3626 38.5379Z" fill="white"/>
<path d="M40.441 46.3712C39.6759 46.9411 38.8221 47.0834 38.5335 46.6943C38.245 46.3059 38.6295 45.5291 39.3952 44.9632C40.1603 44.3939 41.2099 44.1975 41.4985 44.5865C41.7831 44.9788 41.2021 45.802 40.441 46.3712Z" fill="white"/>
<path d="M28.1975 40.7809C28.3626 41.7195 27.9129 42.5433 27.6361 42.6315C27.1746 42.7777 26.6399 42.0237 26.4748 41.085C26.3096 40.1464 26.4284 39.1763 27.0786 39.034C27.9011 38.861 28.0323 39.8422 28.1975 40.7809Z" fill="white"/>
<path d="M43.3595 43.5858C42.9711 44.1511 42.3516 44.3979 41.975 44.14C41.5983 43.8822 41.6101 43.2124 41.9985 42.6471C42.3862 42.0812 42.9515 41.9428 43.3824 42.0929C44.1246 42.3508 43.7479 43.0205 43.3595 43.5858Z" fill="white"/>
<path d="M44.7747 41.7006C44.6514 41.9506 44.3785 42.0466 44.2055 41.9043C43.9979 41.7313 43.7401 41.5387 43.5939 41.4891C43.5899 41.4891 43.5821 41.4852 43.5749 41.4852C43.3595 41.4349 43.2668 41.166 43.3902 40.9192L43.8439 40.0112C44.2055 39.2879 44.9627 38.9341 45.5359 39.2227L45.6012 39.2573C45.7741 39.346 45.8283 39.5921 45.7167 39.8115L44.7747 41.7006Z" fill="white"/>
<path d="M38.4487 47.8491L36.4956 49.0567C36.2997 49.1801 36.038 49.1455 35.8493 48.9804L35.538 48.699C35.2533 48.4412 35.2573 47.9953 35.5497 47.7988L37.5413 46.46C37.7835 46.2942 38.1301 46.379 38.3064 46.6486L38.5799 47.0566C38.764 47.3295 38.7065 47.6911 38.4487 47.8491Z" fill="white"/>
<path d="M28.4625 47.5292C28.4625 47.5292 28.4168 46.3712 28.6244 46.0755C28.7086 45.9521 29.0317 45.8751 29.178 45.8869C29.351 45.898 29.7126 46.2485 29.7661 46.4482C29.8353 46.6983 29.7394 47.3066 29.6623 47.6951C29.6238 47.8948 29.4469 48.0299 29.2589 48.0103L28.7896 47.9607C28.582 47.9372 28.4358 47.7453 28.4625 47.5292Z" fill="white"/>
<path d="M27.717 45.5637L27.0133 43.4089C26.9442 43.2359 27.0244 43.0394 27.1902 42.9781L27.8208 42.7353C27.9631 42.6817 28.1244 42.7392 28.2092 42.8743C28.4051 43.1857 28.736 43.7281 28.832 43.9781C28.9319 44.2399 29.0624 44.8979 29.1316 45.2713C29.1629 45.4286 29.082 45.5827 28.9397 45.6368L28.3091 45.879C28.144 45.9404 27.7862 45.7367 27.717 45.5637Z" fill="white"/>
<path d="M31.9927 49.765L30.0468 49.28C29.7472 49.2069 29.5624 48.9105 29.6238 48.607L29.6741 48.357C29.7393 48.045 30.0396 47.8452 30.351 47.9105L32.2695 48.3028C32.5502 48.3609 32.7467 48.6188 32.7271 48.9034L32.7043 49.2454C32.6808 49.6031 32.3387 49.8538 31.9927 49.765Z" fill="white"/>
<path d="M35.2188 48.9341C35.2769 49.3571 34.8578 49.7918 34.2305 49.9191C33.5999 50.0418 33.0888 49.5842 32.9425 49.3877C32.7885 49.1841 33.3042 48.53 33.9308 48.4027C34.5575 48.28 35.1385 48.3531 35.2188 48.9341Z" fill="white"/>
<path d="M44.244 32.4514C43.6631 33.2054 42.9861 32.5239 42.3249 31.6661C41.6865 30.8391 41.206 29.858 41.6479 29.7039C42.1369 29.5348 42.8517 29.7307 43.5671 30.4892C44.2825 31.2471 44.5286 32.0741 44.244 32.4514Z" fill="white"/>
<path d="M45.9243 35.2133C45.4014 35.7101 44.9517 35.071 44.5287 34.2942C44.1207 33.5474 43.8478 32.7014 44.2055 32.6551C44.5979 32.6009 45.3126 32.7785 45.6012 33.5748C45.7474 33.975 46.1854 34.9672 45.9243 35.2133Z" fill="white"/>
<path d="M44.7245 37.7879L44.8746 36.0835C44.9242 35.6983 45.263 35.9098 45.6201 35.9562C45.9778 36.0025 46.1743 36.2369 46.1241 36.622L46.0359 37.8492C45.9857 38.2337 45.6514 38.5112 45.2976 38.4648C44.9399 38.4145 44.6742 38.1724 44.7245 37.7879Z" fill="white"/>
<path d="M40.1217 30.1967L38.6948 29.4845C38.2718 29.273 38.1876 28.711 38.5257 28.384L38.6915 28.2227C38.8181 28.0993 38.9872 28.0302 39.1641 28.0302C39.4872 28.0302 40.0062 28.0537 40.268 28.192C40.4409 28.2802 40.7523 28.523 41.0141 28.7345C41.2634 28.9342 41.3405 29.2848 41.1982 29.5733L41.0369 29.8964C40.8718 30.2274 40.4599 30.3658 40.1217 30.1967Z" fill="white"/>
<path d="M37.8645 29.0537L35.111 28.8611L34.504 27.9687C34.5386 27.5914 35.2305 27.207 35.6032 27.2416L37.6301 27.5418C37.9376 27.5875 38.1412 27.8878 38.0681 28.192L37.8645 29.0537Z" fill="white"/>
<path d="M31.3889 29.5041C31.2969 29.365 31.2623 28.5961 31.6696 28.3304L33.0274 27.611C33.4347 27.3414 33.7846 27.376 34.0346 27.7573C34.2846 28.1378 34.1613 28.6653 33.7539 28.9303L32.577 29.7078C32.1735 29.9773 31.6389 29.8847 31.3889 29.5041Z" fill="white"/>
<path d="M29.2432 32.4162L28.9436 32.2471C28.6015 32.0513 28.5206 31.593 28.7745 31.2738L30.0742 29.6308C30.3314 29.3077 30.8086 29.2848 31.0736 29.5844L31.3543 29.9043C31.5697 30.1465 31.5658 30.5159 31.3465 30.7699L30.0664 32.2628C29.8588 32.501 29.5128 32.5663 29.2432 32.4162Z" fill="white"/>
<path d="M45.6279 25.0639C45.6279 22.4437 45.1357 22.1395 44.182 21.7394C43.229 21.3392 41.8405 21.8014 41.3137 22.2361C40.7869 22.6709 38.3567 24.6135 38.9102 27.049V27.2031L42.6402 29.1458C42.6441 29.1425 45.6319 27.6842 45.6279 25.0639Z" fill="white"/>
<path d="M25.6516 42.6243C25.871 41.824 25.871 38.3571 25.871 38.3571C18.2269 40.8579 22.391 46.8719 22.391 46.8719C22.391 46.8719 22.4524 46.9026 22.5451 46.8719C23.2527 46.6369 23.3676 44.6975 23.7064 44.3287C24.0445 43.9592 24.6059 43.5088 24.6059 43.5088C24.6059 43.5088 25.5864 42.8704 25.6516 42.6243Z" fill="white"/>
<path d="M38.3873 48.9876C38.8952 48.3335 41.6675 46.2485 41.6675 46.2485C44.2591 53.8664 36.9532 54.1471 36.9532 54.1471C36.9532 54.1471 36.8918 54.1165 36.8612 54.0244C36.6262 53.3161 38.1027 52.0582 38.1954 51.5654C38.2875 51.0732 38.3064 50.3538 38.3064 50.3538C38.3064 50.3538 38.23 49.188 38.3873 48.9876Z" fill="white"/>
<path d="M33.9347 25.31C33.9347 25.31 29.7935 22.2283 25.1177 26.9681C21.799 30.3312 22.3375 31.2542 21.2911 34.1865C20.4804 36.4601 19.5377 39.2997 29.2589 28.446C31.447 26.0026 31.7388 27.1104 32.558 27.4107C33.077 27.6032 34.346 26.7873 33.9347 25.31Z" fill="white"/>
<path d="M47.2429 31.9625C47.2429 31.9625 52.1923 33.4247 51.2151 40.0112C50.5231 44.6864 49.4617 44.8091 47.7468 47.4065C46.4165 49.4223 44.7167 51.8813 47.5471 37.5835C48.1855 34.3673 47.1241 34.7981 46.3897 34.3209C45.9282 34.0207 45.8166 32.5206 47.2429 31.9625Z" fill="white"/>
<defs>
<filter id="filter0_d_14_1039" x="11.6563" y="12.2208" width="49.6874" height="48.848" filterUnits="userSpaceOnUse" color-interpolation-filters="sRGB">
<feFlood flood-opacity="0" result="BackgroundImageFix"/>
<feColorMatrix in="SourceAlpha" type="matrix" values="0 0 0 0 0 0 0 0 0 0 0 0 0 0 0 0 0 0 127 0" result="hardAlpha"/>
<feOffset dy="1"/>
<feGaussianBlur stdDeviation="2"/>
<feComposite in2="hardAlpha" operator="out"/>
<feColorMatrix type="matrix" values="0 0 0 0 0 0 0 0 0 0 0 0 0 0 0 0 0 0 0.16 0"/>
<feBlend mode="normal" in2="BackgroundImageFix" result="effect1_dropShadow_14_1039"/>
<feBlend mode="normal" in="SourceGraphic" in2="effect1_dropShadow_14_1039" result="shape"/>
</filter>
<linearGradient id="paint0_linear_14_1039" x1="36" y1="11" x2="36" y2="62" gradientUnits="userSpaceOnUse">
<stop stop-color="#9CF2ED"/>
<stop offset="0.963542" stop-color="#059E95"/>
</linearGradient>
<linearGradient id="paint1_linear_14_1039" x1="36.5" y1="9" x2="36.5" y2="64" gradientUnits="userSpaceOnUse">
<stop stop-color="#0CB4AA"/>
<stop offset="1" stop-color="#C3F0ED"/>
</linearGradient>
</defs>
</svg>
