<svg width="72" height="72" viewBox="0 0 72 72" fill="none" xmlns="http://www.w3.org/2000/svg">
<g filter="url(#filter0_d_14_588)">
<circle cx="35.12" cy="35.2704" r="25.0209" fill="url(#paint0_linear_14_588)"/>
<path d="M39.5827 14.5052C42.064 12.487 45.801 13.8569 46.39 17.0007C46.8261 19.3282 48.9199 20.9719 51.2844 20.8428C54.4781 20.6685 56.6962 23.9734 55.3248 26.863C54.3096 29.0022 55.0374 31.5627 57.0261 32.8481C59.7123 34.5843 59.5642 38.5617 56.7564 40.0934C54.6775 41.2274 53.7613 43.7266 54.6147 45.9355C55.7674 48.919 53.3097 52.0498 50.1378 51.6385C47.7895 51.334 45.5793 52.8174 44.9713 55.106C44.1501 58.1973 40.3216 59.2855 37.9973 57.0884C36.2764 55.4617 33.6164 55.3627 31.7793 56.8569C29.298 58.8751 25.561 57.5052 24.972 54.3614C24.5359 52.0339 22.4421 50.3903 20.0776 50.5193C16.8839 50.6936 14.6659 47.3887 16.0372 44.4992C17.0525 42.3599 16.3247 39.7994 14.3359 38.514C11.6497 36.7778 11.7978 32.8004 14.6057 31.2687C16.6845 30.1347 17.6007 27.6355 16.7473 25.4266C15.5946 22.4431 18.0523 19.3123 21.2242 19.7236C23.5725 20.0281 25.7828 18.5447 26.3907 16.2561C27.2119 13.1648 31.0404 12.0766 33.3648 14.2737C35.0856 15.9004 37.7457 15.9994 39.5827 14.5052Z" stroke="white" stroke-opacity="0.4" stroke-width="0.5"/>
<g filter="url(#filter1_d_14_588)">
<path d="M26.347 18.6544C31.1759 13.2193 39.6671 13.2193 44.496 18.6544C45.6619 19.9667 47.0985 21.0104 48.7068 21.7138C55.3681 24.6268 57.992 32.7023 54.3152 38.9744C53.4274 40.4888 52.8787 42.1777 52.7068 43.9246C51.9948 51.16 45.1253 56.151 38.024 54.5923C36.3094 54.2159 34.5336 54.2159 32.8191 54.5923C25.7177 56.151 18.8483 51.16 18.1363 43.9246C17.9643 42.1777 17.4156 40.4888 16.5279 38.9744C12.851 32.7023 15.4749 24.6268 22.1362 21.7138C23.7445 21.0104 25.1811 19.9667 26.347 18.6544Z" fill="url(#paint1_linear_14_588)"/>
<path d="M26.5339 18.8205C31.2634 13.4973 39.5796 13.4973 44.3091 18.8205C45.499 20.1597 46.9652 21.225 48.6067 21.9428C55.1308 24.7959 57.7006 32.7051 54.0995 38.848C53.1935 40.3935 52.6334 42.1172 52.458 43.9001C51.7606 50.9865 45.0326 55.8747 38.0776 54.3481C36.3277 53.964 34.5153 53.964 32.7655 54.3481C25.8104 55.8747 19.0824 50.9865 18.3851 43.9001C18.2096 42.1172 17.6496 40.3936 16.7435 38.848C13.1424 32.7051 15.7123 24.7959 22.2364 21.9428C23.8778 21.225 25.344 20.1597 26.5339 18.8205Z" stroke="white" stroke-width="0.5"/>
</g>
<path d="M38.5117 31.1805L37.79 30.7897C37.2789 30.5129 36.6739 30.517 36.1666 30.8015C35.471 31.1881 35.0875 32.0228 35.219 32.8569C35.3166 33.4672 35.674 33.9919 36.1889 34.2688L36.9106 34.6596C37.4218 34.9364 38.0274 34.9323 38.5347 34.6471C39.2303 34.2605 39.6131 33.4265 39.4817 32.5924C39.384 31.9821 39.0235 31.4567 38.5117 31.1805Z" fill="white"/>
<path d="M37.8239 37.9032C37.3765 38.8753 35.8284 38.945 34.6287 38.2974C33.4297 37.6505 32.8209 36.3359 33.2721 35.3638C33.5127 34.8425 35.0576 34.1266 36.2566 34.7735C37.4518 35.4204 38.2712 36.9304 37.8239 37.9032Z" fill="white"/>
<path d="M35.7608 40.7395C35.302 41.7323 34.0953 42.0823 33.0615 41.5245C32.0277 40.9673 31.5657 39.71 32.0201 38.7165C32.4789 37.7237 33.3244 38.3264 34.3582 38.8836C35.3958 39.4449 36.219 39.7466 35.7608 40.7395Z" fill="white"/>
<path d="M40.8352 39.0955L38.5685 37.1948C38.1174 36.8165 37.9783 36.1813 38.2373 35.6973L38.6815 34.8715C38.9406 34.3869 39.5194 34.1915 40.0496 34.411L42.7521 35.5261C43.4254 35.8029 43.7368 36.6169 43.4024 37.2314L42.5269 38.8429C42.1995 39.4414 41.3986 39.563 40.8352 39.0955Z" fill="white"/>
<path d="M37.8922 42.5463L36.5802 40.9431C36.302 40.6007 36.4934 39.5264 36.7869 39.2461L38.2451 38.131C38.5348 37.85 39.0498 38.0496 39.3318 38.3913L40.5985 39.893C40.8767 40.2348 40.7261 40.9349 40.4332 41.2152L38.9253 42.6602C38.6324 42.9371 38.1736 42.8881 37.8922 42.5463Z" fill="white"/>
<path d="M31.6142 36.5196L29.3552 36.0349C28.9155 35.9417 28.6335 35.4653 28.7388 34.993L28.9564 34.0209C29.0808 33.4672 29.6596 33.1945 30.1146 33.4755L32.1553 34.7286C32.3997 34.8791 32.5503 35.156 32.558 35.457L32.5618 35.6648C32.5688 36.2102 32.1106 36.6252 31.6142 36.5196Z" fill="white"/>
<path d="M39.6438 30.9769L37.4218 29.7762C37.2451 29.683 37.1513 29.471 37.1889 29.2632L37.5801 27.0663C37.6362 26.7487 38.3994 26.4553 38.6585 26.6141L41.5492 28.7875C41.816 28.9505 41.846 29.3488 41.6131 29.5608L40.6808 30.7242C40.5493 30.8422 39.7976 31.0625 39.6438 30.9769Z" fill="white"/>
<path d="M32.821 33.8904L29.6935 32.1326C29.4453 31.9897 29.3553 31.652 29.5021 31.3918C29.5021 31.3918 29.9188 29.9474 30.167 29.5242C30.3591 29.1983 31.1555 28.4133 31.1555 28.4133C31.3137 28.1281 31.6743 28.0708 31.904 28.2952L34.7532 31.1107C34.8662 31.2205 34.9223 31.3835 34.9109 31.5464C34.8732 32.0021 34.7756 32.9217 34.5688 33.2069C34.3659 33.4837 33.5727 33.7889 33.2007 33.9228C33.073 33.9677 32.9378 33.9553 32.821 33.8904Z" fill="white"/>
<path d="M32.1445 45.4764C32.0354 45.7119 31.7725 45.8058 31.5543 45.6918C31.359 45.5903 31.1446 45.4723 31.0393 45.4067C30.904 45.3218 30.6373 45.134 30.4152 44.9717C30.2161 44.8247 30.1593 44.5361 30.2876 44.3165L31.3175 42.5829C31.3775 42.4807 31.4751 42.4033 31.5842 42.375C31.851 42.306 32.3513 42.1962 32.5504 42.3101C32.6933 42.3916 32.8324 42.7251 32.9301 43.0185C33.0239 43.303 33.0054 43.6164 32.8809 43.885L32.1445 45.4764Z" fill="white"/>
<path d="M35.1176 45.464L34.0876 45.7933C33.5503 45.9646 32.9939 45.5572 33.073 45.0532L33.2906 43.6164C33.3397 43.2947 33.6365 43.0551 33.9976 43.0427L34.3205 43.0303C34.6479 43.0185 34.9485 43.1974 35.0691 43.4701L35.5572 44.5892C35.7117 44.9427 35.5126 45.3377 35.1176 45.464Z" fill="white"/>
<path d="M30.0693 43.0427L28.7803 41.1627L30.0655 40.2106C30.4566 39.8315 31.0539 39.8647 31.4075 40.2879L31.4451 40.3321C31.7948 40.7553 31.7648 41.4029 31.3736 41.7854L30.0693 43.0427Z" fill="white"/>
<path d="M28.8741 37.1948L31.6519 37.0726C31.9301 37.0608 32.1407 37.3984 32.0654 37.7319C32.0392 37.85 31.9792 37.9515 31.8963 38.0212L30.6034 39.0707C30.5543 39.1114 30.5619 39.1114 30.4413 39.2094L29.1446 40.2223C28.9041 40.2672 28.5397 39.2336 28.5282 38.9284L28.4829 37.7278C28.4721 37.4433 28.645 37.2031 28.8741 37.1948Z" fill="white"/>
<path d="M43.8198 35.0296L41.7414 34.4766C41.1396 34.3137 41.0196 34.2488 40.4441 34.0209C40.4441 34.0209 39.8614 33.5204 39.7223 33.3043C39.4256 32.8444 40.0605 31.8924 40.4026 31.6521L42.1472 30.4397C42.5831 30.1387 43.2033 30.4639 43.4516 31.1191L44.098 32.8527C44.3347 33.4997 44.3271 34.9364 43.8198 35.0296Z" fill="white"/>
<path d="M34.0914 30.2726L32.6218 27.8796C32.3436 27.4239 32.6703 26.777 33.2459 26.643L34.8508 26.2723C35.2452 26.1791 36.3842 26.224 36.4933 26.5816L36.8883 29.1576C37.0045 29.5525 36.3281 29.9757 35.9069 30.1545L35.0499 30.5212C34.6779 30.68 34.2797 30.5736 34.0914 30.2726Z" fill="white"/>
<path d="M29.389 47.2059C29.389 47.2059 30.1746 48.4466 31.8924 48.3127C31.8924 48.3127 30.1293 50.3881 29.7234 50.7299C28.6111 51.6695 28.6373 48.8374 29.389 47.2059Z" fill="white"/>
<path d="M36.5196 44.5892C36.5196 44.5892 34.9638 43.0627 35.0653 42.3958C35.1138 42.0782 35.6964 41.6874 36.1399 41.4312C36.4143 41.2724 36.7532 41.3947 36.8923 41.6915C37.0237 41.9767 37.1775 42.306 37.2643 42.4607C37.5987 43.051 37.5196 43.8077 37.0008 44.2102L36.5196 44.5892Z" fill="white"/>
<path d="M28.5697 32.6573L27.3745 32.0428L28.4153 29.3937L29.3967 29.6747L28.5697 32.6573Z" fill="white"/>
<path d="M28.3777 35.9292L26.9457 36.0148C26.9457 36.0148 26.8328 34.8832 26.8857 34.5132C26.9495 34.0816 27.4454 32.8693 27.4454 32.8693L28.5321 32.9991L28.3777 35.9292Z" fill="white"/>
<path d="M40.185 44.2143C39.4371 44.8171 38.6025 44.9676 38.3204 44.5561C38.0383 44.1453 38.4142 43.3237 39.1627 42.7251C39.9106 42.123 40.9367 41.9152 41.2188 42.3267C41.497 42.7417 40.9291 43.6123 40.185 44.2143Z" fill="white"/>
<path d="M28.2162 38.3016C28.3777 39.2944 27.938 40.1657 27.6674 40.2589C27.2163 40.4136 26.6936 39.6161 26.5322 38.6233C26.3707 37.6305 26.4869 36.6045 27.1225 36.454C27.9265 36.271 28.0548 37.3087 28.2162 38.3016Z" fill="white"/>
<path d="M43.038 41.2683C42.6583 41.8662 42.0527 42.1272 41.6845 41.8545C41.3163 41.5818 41.3278 40.8734 41.7075 40.2755C42.0865 39.6769 42.6392 39.5305 43.0603 39.6893C43.7859 39.962 43.4177 40.6704 43.038 41.2683Z" fill="white"/>
<path d="M44.4215 39.2744C44.3009 39.5388 44.0342 39.6403 43.8651 39.4898C43.6621 39.3068 43.4101 39.1031 43.2671 39.0507C43.2633 39.0507 43.2556 39.0465 43.2486 39.0465C43.038 38.9934 42.9474 38.7089 43.068 38.4479L43.5115 37.4875C43.8651 36.7226 44.6053 36.3483 45.1656 36.6535L45.2294 36.6901C45.3985 36.784 45.4515 37.0443 45.3423 37.2763L44.4215 39.2744Z" fill="white"/>
<path d="M38.2374 45.7774L36.3281 47.0547C36.1367 47.1852 35.8808 47.1486 35.6964 46.9739L35.392 46.6764C35.1138 46.4036 35.1176 45.9321 35.4035 45.7243L37.3504 44.3082C37.5872 44.1328 37.926 44.2226 38.0983 44.5077L38.3657 44.9393C38.5456 45.2279 38.4895 45.6103 38.2374 45.7774Z" fill="white"/>
<path d="M28.4752 45.4392C28.4752 45.4392 28.4306 44.2143 28.6335 43.9016C28.7158 43.7711 29.0317 43.6896 29.1746 43.7021C29.3437 43.7138 29.6973 44.0845 29.7496 44.2958C29.8172 44.5602 29.7234 45.2037 29.6481 45.6145C29.6105 45.8258 29.4375 45.9687 29.2538 45.948L28.7949 45.8955C28.592 45.8707 28.4491 45.6677 28.4752 45.4392Z" fill="white"/>
<path d="M27.7465 43.3603L27.0586 41.0812C26.991 40.8982 27.0695 40.6904 27.2316 40.6255L27.848 40.3687C27.9871 40.312 28.1447 40.3728 28.2277 40.5157C28.4191 40.8451 28.7427 41.4188 28.8365 41.6832C28.9341 41.9601 29.0617 42.656 29.1294 43.051C29.16 43.2174 29.0809 43.3803 28.9417 43.4376L28.3253 43.6937C28.1639 43.7586 27.8142 43.5432 27.7465 43.3603Z" fill="white"/>
<path d="M31.9263 47.8039L30.024 47.2909C29.7311 47.2135 29.5505 46.9001 29.6105 46.579L29.6596 46.3146C29.7234 45.9846 30.017 45.7733 30.3214 45.8424L32.1968 46.2573C32.4712 46.3188 32.6633 46.5915 32.6442 46.8925L32.6218 47.2543C32.5988 47.6326 32.2645 47.8978 31.9263 47.8039Z" fill="white"/>
<path d="M35.0799 46.925C35.1367 47.3723 34.727 47.8322 34.1138 47.9668C33.4974 48.0966 32.9977 47.6126 32.8548 47.4048C32.7042 47.1894 33.2083 46.4976 33.8209 46.3629C34.4335 46.2331 35.0014 46.3105 35.0799 46.925Z" fill="white"/>
<path d="M43.9027 29.4918C43.3347 30.2892 42.673 29.5684 42.0266 28.6612C41.4025 27.7864 40.9328 26.7487 41.3648 26.5858C41.8428 26.4069 42.5415 26.6141 43.2409 27.4163C43.9403 28.2179 44.1809 29.0927 43.9027 29.4918Z" fill="white"/>
<path d="M45.5453 32.4129C45.0342 32.9384 44.5945 32.2624 44.181 31.4408C43.7822 30.651 43.5154 29.7562 43.8651 29.7072C44.2486 29.6499 44.9474 29.8377 45.2295 30.68C45.3724 31.1032 45.8006 32.1527 45.5453 32.4129Z" fill="white"/>
<path d="M44.3724 35.136L44.5192 33.3333C44.5677 32.9259 44.8989 33.1496 45.2479 33.1986C45.5976 33.2477 45.7897 33.4955 45.7406 33.9029L45.6544 35.2009C45.6053 35.6075 45.2786 35.901 44.9327 35.8519C44.583 35.7988 44.3233 35.5426 44.3724 35.136Z" fill="white"/>
<path d="M39.8729 27.107L38.478 26.3538C38.0645 26.1301 37.9822 25.5356 38.3127 25.1897L38.4748 25.0192C38.5986 24.8887 38.7639 24.8155 38.9368 24.8155C39.2527 24.8155 39.76 24.8403 40.0159 24.9867C40.185 25.0799 40.4894 25.3368 40.7453 25.5605C40.989 25.7717 41.0643 26.1425 40.9252 26.4477L40.7676 26.7894C40.6061 27.1395 40.2035 27.2858 39.8729 27.107Z" fill="white"/>
<path d="M37.6662 25.8981L34.9746 25.6944L34.3811 24.7506C34.4149 24.3516 35.0913 23.9449 35.4557 23.9815L37.4371 24.2991C37.7377 24.3474 37.9368 24.665 37.8653 24.9867L37.6662 25.8981Z" fill="white"/>
<path d="M31.336 26.3745C31.246 26.2274 31.2122 25.4141 31.6104 25.1331L32.9377 24.3723C33.3359 24.0871 33.6779 24.1237 33.9224 24.5269C34.1668 24.9294 34.0461 25.4873 33.648 25.7676L32.4974 26.5899C32.103 26.8751 31.5804 26.777 31.336 26.3745Z" fill="white"/>
<path d="M29.2384 29.4545L28.9455 29.2756C28.6112 29.0685 28.532 28.5838 28.7803 28.2462L30.0508 26.5084C30.3022 26.1667 30.7687 26.1425 31.0278 26.4594L31.3022 26.7977C31.5127 27.0539 31.5089 27.4446 31.2945 27.7132L30.0431 29.2922C29.8402 29.5442 29.502 29.6133 29.2384 29.4545Z" fill="white"/>
<path d="M45.2555 21.6782C45.2555 18.9068 44.7744 18.5851 43.8421 18.1619C42.9104 17.7386 41.5531 18.2275 41.0381 18.6873C40.5231 19.1471 38.1474 21.2018 38.6885 23.7778V23.9407L42.3348 25.9954C42.3386 25.992 45.2593 24.4496 45.2555 21.6782Z" fill="white"/>
<path d="M25.7275 40.2513C25.9419 39.4048 25.9419 35.738 25.9419 35.738C18.4694 38.383 22.5401 44.7439 22.5401 44.7439C22.5401 44.7439 22.6 44.7763 22.6907 44.7439C23.3824 44.4953 23.4947 42.4441 23.8259 42.054C24.1564 41.6632 24.7052 41.1868 24.7052 41.1868C24.7052 41.1868 25.6637 40.5116 25.7275 40.2513Z" fill="white"/>
<path d="M38.1775 46.9816C38.6739 46.2897 41.3841 44.0845 41.3841 44.0845C43.9174 52.1418 36.7755 52.4387 36.7755 52.4387C36.7755 52.4387 36.7155 52.4062 36.6855 52.3089C36.4558 51.5598 37.8992 50.2293 37.9898 49.708C38.0798 49.1875 38.0983 48.4266 38.0983 48.4266C38.0983 48.4266 38.0237 47.1935 38.1775 46.9816Z" fill="white"/>
<path d="M33.8247 21.9385C33.8247 21.9385 29.7764 18.679 25.2055 23.6922C21.9612 27.2492 22.4877 28.2255 21.4648 31.3269C20.6722 33.7316 19.7507 36.735 29.2538 25.2553C31.3928 22.671 31.678 23.8427 32.4789 24.1603C32.9862 24.3639 34.2267 23.5009 33.8247 21.9385Z" fill="white"/>
<path d="M46.8343 28.9746C46.8343 28.9746 51.6726 30.5212 50.7173 37.4875C50.0409 42.4324 49.0033 42.5622 47.3269 45.3094C46.0264 47.4414 44.3647 50.0422 47.1316 34.9199C47.7557 31.5181 46.7181 31.9738 46.0002 31.4691C45.5491 31.1515 45.44 29.5649 46.8343 28.9746Z" fill="white"/>
</g>
<defs>
<filter id="filter0_d_14_588" x="6.09912" y="10.2495" width="58.0419" height="58.0418" filterUnits="userSpaceOnUse" color-interpolation-filters="sRGB">
<feFlood flood-opacity="0" result="BackgroundImageFix"/>
<feColorMatrix in="SourceAlpha" type="matrix" values="0 0 0 0 0 0 0 0 0 0 0 0 0 0 0 0 0 0 127 0" result="hardAlpha"/>
<feOffset dy="4"/>
<feGaussianBlur stdDeviation="2"/>
<feComposite in2="hardAlpha" operator="out"/>
<feColorMatrix type="matrix" values="0 0 0 0 0 0 0 0 0 0 0 0 0 0 0 0 0 0 0.25 0"/>
<feBlend mode="normal" in2="BackgroundImageFix" result="effect1_dropShadow_14_588"/>
<feBlend mode="normal" in="SourceGraphic" in2="effect1_dropShadow_14_588" result="shape"/>
</filter>
<filter id="filter1_d_14_588" x="10.8574" y="11.5781" width="49.1282" height="48.3002" filterUnits="userSpaceOnUse" color-interpolation-filters="sRGB">
<feFlood flood-opacity="0" result="BackgroundImageFix"/>
<feColorMatrix in="SourceAlpha" type="matrix" values="0 0 0 0 0 0 0 0 0 0 0 0 0 0 0 0 0 0 127 0" result="hardAlpha"/>
<feOffset dy="1"/>
<feGaussianBlur stdDeviation="2"/>
<feComposite in2="hardAlpha" operator="out"/>
<feColorMatrix type="matrix" values="0 0 0 0 0 0 0 0 0 0 0 0 0 0 0 0 0 0 0.16 0"/>
<feBlend mode="normal" in2="BackgroundImageFix" result="effect1_dropShadow_14_588"/>
<feBlend mode="normal" in="SourceGraphic" in2="effect1_dropShadow_14_588" result="shape"/>
</filter>
<linearGradient id="paint0_linear_14_588" x1="35.12" y1="10.2495" x2="35.12" y2="60.2913" gradientUnits="userSpaceOnUse">
<stop stop-color="#ADE8FB"/>
<stop offset="0.963542" stop-color="#469CB8"/>
</linearGradient>
<linearGradient id="paint1_linear_14_588" x1="35.4215" y1="8.4408" x2="35.4215" y2="62.703" gradientUnits="userSpaceOnUse">
<stop stop-color="#275463"/>
<stop offset="1" stop-color="#96D5E9"/>
</linearGradient>
</defs>
</svg>
