<svg width="72" height="72" viewBox="0 0 72 72" fill="none" xmlns="http://www.w3.org/2000/svg">
<circle cx="35.1201" cy="35.2704" r="25.0209" fill="url(#paint0_linear_14_947)"/>
<path d="M39.5828 14.5052C42.0641 12.487 45.8011 13.8569 46.3901 17.0007C46.8262 19.3282 48.92 20.9719 51.2845 20.8428C54.4782 20.6685 56.6962 23.9734 55.3249 26.863C54.3096 29.0022 55.0374 31.5627 57.0262 32.8481C59.7124 34.5843 59.5643 38.5617 56.7564 40.0934C54.6776 41.2274 53.7614 43.7266 54.6148 45.9355C55.7675 48.919 53.3098 52.0498 50.1379 51.6385C47.7895 51.334 45.5793 52.8174 44.9714 55.106C44.1502 58.1973 40.3217 59.2855 37.9973 57.0884C36.2765 55.4617 33.6164 55.3627 31.7794 56.8569C29.298 58.8751 25.5611 57.5052 24.972 54.3614C24.536 52.0339 22.4422 50.3903 20.0777 50.5193C16.884 50.6936 14.6659 47.3887 16.0373 44.4992C17.0525 42.3599 16.3247 39.7994 14.336 38.514C11.6498 36.7778 11.7978 32.8004 14.6057 31.2687C16.6845 30.1347 17.6007 27.6355 16.7474 25.4266C15.5947 22.4431 18.0524 19.3123 21.2243 19.7236C23.5726 20.0281 25.7828 18.5447 26.3908 16.2561C27.2119 13.1648 31.0404 12.0766 33.3648 14.2737C35.0857 15.9004 37.7457 15.9994 39.5828 14.5052Z" stroke="white" stroke-opacity="0.4" stroke-width="0.5"/>
<g filter="url(#filter0_d_14_947)">
<path d="M26.347 18.6544C31.1759 13.2193 39.6671 13.2193 44.496 18.6544C45.6619 19.9667 47.0985 21.0104 48.7068 21.7138C55.3681 24.6268 57.992 32.7023 54.3152 38.9744C53.4274 40.4888 52.8787 42.1777 52.7068 43.9246C51.9948 51.16 45.1253 56.151 38.024 54.5923C36.3094 54.2159 34.5336 54.2159 32.8191 54.5923C25.7177 56.151 18.8483 51.16 18.1363 43.9246C17.9643 42.1777 17.4156 40.4888 16.5279 38.9744C12.851 32.7023 15.4749 24.6268 22.1362 21.7138C23.7445 21.0104 25.1811 19.9667 26.347 18.6544Z" fill="url(#paint1_linear_14_947)"/>
<path d="M26.5339 18.8205C31.2634 13.4973 39.5796 13.4973 44.3091 18.8205C45.499 20.1597 46.9652 21.225 48.6067 21.9428C55.1308 24.7959 57.7006 32.7051 54.0995 38.848C53.1935 40.3935 52.6334 42.1172 52.458 43.9001C51.7606 50.9865 45.0326 55.8747 38.0776 54.3481C36.3277 53.964 34.5153 53.964 32.7655 54.3481C25.8104 55.8747 19.0824 50.9865 18.3851 43.9001C18.2096 42.1172 17.6496 40.3936 16.7435 38.848C13.1424 32.7051 15.7123 24.7959 22.2364 21.9428C23.8778 21.225 25.344 20.1597 26.5339 18.8205Z" stroke="white" stroke-width="0.5"/>
</g>
<path d="M37.8605 33.2842L37.1387 32.923C36.6276 32.6671 36.0227 32.6709 35.5153 32.9338C34.8198 33.2912 34.4363 34.0627 34.5677 34.8336C34.6654 35.3977 35.0227 35.8826 35.5377 36.1385L36.2594 36.4997C36.7705 36.7556 37.3761 36.7518 37.8834 36.4882C38.579 36.1309 38.9619 35.36 38.8304 34.5892C38.7328 34.025 38.3723 33.5394 37.8605 33.2842Z" fill="white"/>
<path d="M37.1726 39.4976C36.7252 40.3961 35.1771 40.4606 33.9774 39.862C32.7784 39.2641 32.1696 38.0491 32.6208 37.1506C32.8613 36.6688 34.4063 36.0071 35.6053 36.605C36.8005 37.2029 37.6199 38.5985 37.1726 39.4976Z" fill="white"/>
<path d="M35.1095 42.1191C34.6507 43.0367 33.444 43.3602 32.4103 42.8446C31.3765 42.3297 30.9145 41.1676 31.3688 40.2494C31.8276 39.3317 32.6732 39.8888 33.7069 40.4038C34.7445 40.9226 35.5677 41.2015 35.1095 42.1191Z" fill="white"/>
<path d="M40.1839 40.5997L37.9173 38.843C37.4661 38.4933 37.327 37.9062 37.5861 37.4589L38.0302 36.6956C38.2893 36.2477 38.8681 36.0671 39.3984 36.27L42.1009 37.3006C42.7741 37.5565 43.0855 38.3088 42.7511 38.8768L41.8756 40.3662C41.5483 40.9194 40.7474 41.0317 40.1839 40.5997Z" fill="white"/>
<path d="M37.2409 43.7891L35.9289 42.3073C35.6507 41.9908 35.8421 40.9979 36.1356 40.7388L37.5938 39.7082C37.8835 39.4485 38.3984 39.6329 38.6805 39.9488L39.9472 41.3367C40.2254 41.6526 40.0748 42.2997 39.7819 42.5588L38.274 43.8944C37.9811 44.1502 37.5223 44.1049 37.2409 43.7891Z" fill="white"/>
<path d="M30.9629 38.2188L28.7039 37.7708C28.2643 37.6847 27.9822 37.2444 28.0875 36.8079L28.3051 35.9094C28.4295 35.3976 29.0083 35.1456 29.4633 35.4053L31.5041 36.5635C31.7485 36.7026 31.8991 36.9585 31.9067 37.2367L31.9106 37.4288C31.9176 37.9329 31.4594 38.3164 30.9629 38.2188Z" fill="white"/>
<path d="M38.9925 33.0959L36.7706 31.9862C36.5938 31.9001 36.5 31.7042 36.5377 31.5121L36.9288 29.4816C36.985 29.188 37.7482 28.9168 38.0073 29.0636L40.898 31.0724C41.1647 31.223 41.1947 31.5912 40.9618 31.7871L40.0295 32.8624C39.8981 32.9715 39.1463 33.1751 38.9925 33.0959Z" fill="white"/>
<path d="M32.1697 35.7888L29.0422 34.1641C28.794 34.0321 28.704 33.72 28.8507 33.4794C28.8507 33.4794 29.2674 32.1445 29.5157 31.7533C29.7078 31.4521 30.5041 30.7265 30.5041 30.7265C30.6624 30.463 31.0229 30.41 31.2527 30.6174L34.1019 33.2197C34.2149 33.3212 34.271 33.4718 34.2595 33.6224C34.2219 34.0435 34.1243 34.8935 33.9175 35.1571C33.7146 35.413 32.9214 35.695 32.5494 35.8188C32.4217 35.8603 32.2864 35.8488 32.1697 35.7888Z" fill="white"/>
<path d="M31.4932 46.4973C31.3841 46.7149 31.1212 46.8017 30.9029 46.6964C30.7077 46.6026 30.4933 46.4935 30.388 46.4329C30.2527 46.3544 29.986 46.1808 29.7639 46.0309C29.5648 45.8949 29.508 45.6282 29.6363 45.4253L30.6662 43.8229C30.7262 43.7285 30.8238 43.657 30.9329 43.6308C31.1997 43.567 31.7 43.4656 31.8991 43.5709C32.042 43.6462 32.1811 43.9544 32.2788 44.2256C32.3726 44.4885 32.3541 44.7782 32.2296 45.0264L31.4932 46.4973Z" fill="white"/>
<path d="M34.4662 46.4858L33.4363 46.7902C32.899 46.9485 32.3425 46.572 32.4217 46.1061L32.6393 44.7782C32.6884 44.4808 32.9851 44.2594 33.3463 44.2479L33.6692 44.2364C33.9966 44.2256 34.2971 44.3908 34.4178 44.6429L34.9059 45.6773C35.0603 46.004 34.8613 46.369 34.4662 46.4858Z" fill="white"/>
<path d="M29.418 44.2479L28.129 42.5103L29.4142 41.6303C29.8053 41.28 30.4026 41.3106 30.7562 41.7018L30.7938 41.7426C31.1435 42.1338 31.1135 42.7324 30.7223 43.0859L29.418 44.2479Z" fill="white"/>
<path d="M28.2228 38.843L31.0006 38.73C31.2788 38.7192 31.4894 39.0312 31.4141 39.3394C31.3879 39.4485 31.3279 39.5424 31.245 39.6068L29.9521 40.5768C29.903 40.6144 29.9106 40.6144 29.79 40.705L28.4933 41.6412C28.2528 41.6826 27.8884 40.7274 27.8769 40.4453L27.8316 39.3356C27.8208 39.0727 27.9937 38.8506 28.2228 38.843Z" fill="white"/>
<path d="M43.1685 36.8418L41.0901 36.3306C40.4883 36.18 40.3683 36.12 39.7927 35.9095C39.7927 35.9095 39.2101 35.4468 39.071 35.2471C38.7743 34.8221 39.4092 33.9421 39.7513 33.72L41.4959 32.5995C41.9318 32.3212 42.552 32.6218 42.8003 33.2274L43.4467 34.8297C43.6834 35.4277 43.6758 36.7556 43.1685 36.8418Z" fill="white"/>
<path d="M33.4402 32.4451L31.9706 30.2333C31.6923 29.8121 32.0191 29.2142 32.5947 29.0904L34.1996 28.7477C34.5939 28.6616 35.733 28.7031 35.8421 29.0336L36.2371 31.4145C36.3532 31.7795 35.6768 32.1707 35.2557 32.336L34.3986 32.6748C34.0266 32.8216 33.6284 32.7233 33.4402 32.4451Z" fill="white"/>
<path d="M28.7378 48.0958C28.7378 48.0958 29.5233 49.2425 31.2412 49.1187C31.2412 49.1187 29.478 51.037 29.0722 51.3528C27.9599 52.2213 27.9861 49.6037 28.7378 48.0958Z" fill="white"/>
<path d="M35.8682 45.6773C35.8682 45.6773 34.3125 44.2664 34.4139 43.65C34.4624 43.3565 35.045 42.9953 35.4885 42.7585C35.7629 42.6118 36.1018 42.7247 36.2409 42.9991C36.3724 43.2627 36.5261 43.567 36.6129 43.71C36.9473 44.2556 36.8682 44.955 36.3494 45.327L35.8682 45.6773Z" fill="white"/>
<path d="M27.9184 34.6491L26.7232 34.0812L27.764 31.6327L28.7454 31.8924L27.9184 34.6491Z" fill="white"/>
<path d="M27.7264 37.6732L26.2944 37.7524C26.2944 37.7524 26.1814 36.7065 26.2344 36.3644C26.2982 35.9656 26.7941 34.845 26.7941 34.845L27.8808 34.965L27.7264 37.6732Z" fill="white"/>
<path d="M39.5337 45.3308C38.7858 45.8879 37.9511 46.027 37.669 45.6467C37.387 45.267 37.7628 44.5076 38.5114 43.9543C39.2593 43.3979 40.2854 43.2058 40.5674 43.5861C40.8456 43.9696 40.2777 44.7743 39.5337 45.3308Z" fill="white"/>
<path d="M27.5649 39.8658C27.7263 40.7835 27.2867 41.5888 27.0161 41.6749C26.565 41.8179 26.0423 41.0808 25.8809 40.1632C25.7194 39.2456 25.8356 38.2973 26.4711 38.1582C27.2752 37.9891 27.4035 38.9482 27.5649 39.8658Z" fill="white"/>
<path d="M42.3868 42.6079C42.0071 43.1606 41.4015 43.4018 41.0333 43.1497C40.6651 42.8976 40.6766 42.2429 41.0563 41.6903C41.4353 41.137 41.9879 41.0018 42.4091 41.1485C43.1346 41.4006 42.7664 42.0553 42.3868 42.6079Z" fill="white"/>
<path d="M43.7702 40.765C43.6496 41.0094 43.3829 41.1032 43.2138 40.964C43.0108 40.7949 42.7588 40.6067 42.6158 40.5582C42.612 40.5582 42.6043 40.5544 42.5973 40.5544C42.3867 40.5052 42.2961 40.2423 42.4167 40.0011L42.8602 39.1135C43.2138 38.4064 43.954 38.0606 44.5143 38.3426L44.5781 38.3764C44.7472 38.4632 44.8001 38.7038 44.691 38.9182L43.7702 40.765Z" fill="white"/>
<path d="M37.5861 46.7756L35.6768 47.9561C35.4854 48.0767 35.2295 48.0429 35.0451 47.8814L34.7407 47.6064C34.4625 47.3544 34.4663 46.9185 34.7522 46.7264L36.6991 45.4176C36.9359 45.2555 37.2747 45.3385 37.447 45.602L37.7144 46.0009C37.8943 46.2676 37.8382 46.6211 37.5861 46.7756Z" fill="white"/>
<path d="M27.824 46.4628C27.824 46.4628 27.7793 45.3308 27.9823 45.0417C28.0646 44.9211 28.3804 44.8458 28.5234 44.8573C28.6925 44.8681 29.046 45.2108 29.0983 45.4061C29.166 45.6505 29.0722 46.2452 28.9969 46.6249C28.9592 46.8202 28.7863 46.9523 28.6025 46.9331L28.1437 46.8846C27.9408 46.8617 27.7978 46.6741 27.824 46.4628Z" fill="white"/>
<path d="M27.0952 44.5415L26.4073 42.435C26.3397 42.2659 26.4182 42.0738 26.5803 42.0138L27.1967 41.7764C27.3358 41.7241 27.4934 41.7803 27.5764 41.9124C27.7678 42.2167 28.0913 42.747 28.1852 42.9914C28.2828 43.2473 28.4104 43.8906 28.4781 44.2556C28.5087 44.4094 28.4296 44.56 28.2904 44.6129L27.674 44.8497C27.5126 44.9097 27.1629 44.7106 27.0952 44.5415Z" fill="white"/>
<path d="M31.275 48.6485L29.3727 48.1744C29.0798 48.1029 28.8992 47.8132 28.9592 47.5165L29.0084 47.2721C29.0722 46.967 29.3657 46.7718 29.6701 46.8356L31.5456 47.2191C31.82 47.2759 32.0121 47.5279 31.9929 47.8062L31.9706 48.1405C31.9476 48.4902 31.6132 48.7353 31.275 48.6485Z" fill="white"/>
<path d="M34.4286 47.8361C34.4854 48.2496 34.0757 48.6746 33.4625 48.799C32.8461 48.919 32.3464 48.4717 32.2035 48.2796C32.0529 48.0805 32.557 47.4411 33.1696 47.3167C33.7822 47.1967 34.3501 47.2682 34.4286 47.8361Z" fill="white"/>
<path d="M43.2514 31.7233C42.6835 32.4603 42.0218 31.7941 41.3753 30.9556C40.7512 30.1471 40.2816 29.188 40.7136 29.0374C41.1915 28.8721 41.8903 29.0636 42.5897 29.8051C43.2891 30.5459 43.5297 31.3545 43.2514 31.7233Z" fill="white"/>
<path d="M44.894 34.4232C44.3828 34.9088 43.9431 34.2841 43.5296 33.5247C43.1308 32.7947 42.8641 31.9677 43.2138 31.9224C43.5973 31.8694 44.296 32.043 44.5781 32.8215C44.721 33.2127 45.1492 34.1827 44.894 34.4232Z" fill="white"/>
<path d="M43.7211 36.94L43.8678 35.2739C43.9163 34.8974 44.2475 35.1041 44.5966 35.1495C44.9463 35.1948 45.1384 35.4238 45.0892 35.8003L45.0031 37C44.9539 37.3759 44.6272 37.6471 44.2813 37.6018C43.9316 37.5527 43.6719 37.3159 43.7211 36.94Z" fill="white"/>
<path d="M39.2216 29.5192L37.8267 28.823C37.4132 28.6162 37.3308 28.0668 37.6614 27.7471L37.8235 27.5895C37.9473 27.4689 38.1126 27.4012 38.2855 27.4012C38.6014 27.4012 39.1087 27.4242 39.3646 27.5595C39.5337 27.6456 39.8381 27.883 40.094 28.0898C40.3377 28.2851 40.413 28.6277 40.2739 28.9098L40.1163 29.2257C39.9548 29.5492 39.5522 29.6845 39.2216 29.5192Z" fill="white"/>
<path d="M37.015 28.4019L34.3233 28.2136L33.7299 27.3413C33.7637 26.9725 34.4401 26.5966 34.8045 26.6304L36.7859 26.924C37.0864 26.9686 37.2855 27.2622 37.2141 27.5595L37.015 28.4019Z" fill="white"/>
<path d="M30.6847 28.8421C30.5947 28.7062 30.5609 27.9545 30.9591 27.6948L32.2864 26.9916C32.6846 26.728 33.0266 26.7618 33.271 27.1345C33.5154 27.5065 33.3948 28.0221 32.9966 28.2812L31.8461 29.0412C31.4517 29.3048 30.9291 29.2142 30.6847 28.8421Z" fill="white"/>
<path d="M28.5872 31.6888L28.2943 31.5236C27.9599 31.3321 27.8808 30.8842 28.129 30.5721L29.3995 28.9659C29.651 28.6501 30.1174 28.6277 30.3765 28.9206L30.6509 29.2333C30.8615 29.4701 30.8577 29.8312 30.6433 30.0795L29.3919 31.5389C29.189 31.7718 28.8507 31.8356 28.5872 31.6888Z" fill="white"/>
<path d="M44.6043 24.5016C44.6043 21.9401 44.1231 21.6428 43.1908 21.2516C42.2591 20.8604 40.9018 21.3122 40.3869 21.7372C39.8719 22.1622 37.4961 24.0613 38.0373 26.4422V26.5928L41.6835 28.4918C41.6874 28.4886 44.6081 27.0631 44.6043 24.5016Z" fill="white"/>
<path d="M25.0761 41.6679C25.2906 40.8856 25.2906 37.4965 25.2906 37.4965C17.818 39.9411 21.8887 45.8202 21.8887 45.8202C21.8887 45.8202 21.9487 45.8502 22.0393 45.8202C22.731 45.5905 22.8433 43.6946 23.1745 43.3341C23.5051 42.9729 24.0539 42.5326 24.0539 42.5326C24.0539 42.5326 25.0123 41.9085 25.0761 41.6679Z" fill="white"/>
<path d="M37.5261 47.8885C38.0226 47.2491 40.7328 45.2109 40.7328 45.2109C43.2661 52.6579 36.1242 52.9323 36.1242 52.9323C36.1242 52.9323 36.0642 52.9023 36.0342 52.8123C35.8045 52.1199 37.2479 50.8902 37.3385 50.4085C37.4285 49.9273 37.447 49.2241 37.447 49.2241C37.447 49.2241 37.3724 48.0844 37.5261 47.8885Z" fill="white"/>
<path d="M33.1734 24.7422C33.1734 24.7422 29.1251 21.7295 24.5542 26.363C21.3099 29.6507 21.8364 30.553 20.8135 33.4195C20.0209 35.6421 19.0994 38.4179 28.6025 27.8077C30.7415 25.4192 31.0267 26.5021 31.8276 26.7957C32.3349 26.9839 33.5754 26.1863 33.1734 24.7422Z" fill="white"/>
<path d="M46.183 31.2454C46.183 31.2454 51.0213 32.6748 50.066 39.1135C49.3896 43.6838 48.352 43.8038 46.6756 46.3429C45.3751 48.3134 43.7134 50.7173 46.4803 36.7403C47.1044 33.5962 46.0668 34.0174 45.3489 33.5509C44.8978 33.2574 44.7887 31.791 46.183 31.2454Z" fill="white"/>
<defs>
<filter id="filter0_d_14_947" x="10.8574" y="11.5781" width="49.1282" height="48.3002" filterUnits="userSpaceOnUse" color-interpolation-filters="sRGB">
<feFlood flood-opacity="0" result="BackgroundImageFix"/>
<feColorMatrix in="SourceAlpha" type="matrix" values="0 0 0 0 0 0 0 0 0 0 0 0 0 0 0 0 0 0 127 0" result="hardAlpha"/>
<feOffset dy="1"/>
<feGaussianBlur stdDeviation="2"/>
<feComposite in2="hardAlpha" operator="out"/>
<feColorMatrix type="matrix" values="0 0 0 0 0 0 0 0 0 0 0 0 0 0 0 0 0 0 0.16 0"/>
<feBlend mode="normal" in2="BackgroundImageFix" result="effect1_dropShadow_14_947"/>
<feBlend mode="normal" in="SourceGraphic" in2="effect1_dropShadow_14_947" result="shape"/>
</filter>
<linearGradient id="paint0_linear_14_947" x1="35.1201" y1="10.2495" x2="35.1201" y2="60.2913" gradientUnits="userSpaceOnUse">
<stop stop-color="#A5CBEE"/>
<stop offset="0.963542" stop-color="#173754"/>
</linearGradient>
<linearGradient id="paint1_linear_14_947" x1="35.4215" y1="8.4408" x2="35.4215" y2="62.703" gradientUnits="userSpaceOnUse">
<stop stop-color="#7597B7"/>
<stop offset="1" stop-color="#405971"/>
</linearGradient>
</defs>
</svg>
