<svg width="15" height="15" viewBox="0 0 15 15" fill="none" xmlns="http://www.w3.org/2000/svg">
<path d="M7.5 3.75C7.66576 3.75 7.82473 3.81585 7.94194 3.93306C8.05915 4.05027 8.125 4.20924 8.125 4.375V8.125C8.125 8.29076 8.05915 8.44973 7.94194 8.56694C7.82473 8.68415 7.66576 8.75 7.5 8.75C7.33424 8.75 7.17527 8.68415 7.05806 8.56694C6.94085 8.44973 6.875 8.29076 6.875 8.125V4.375C6.875 4.20924 6.94085 4.05027 7.05806 3.93306C7.17527 3.81585 7.33424 3.75 7.5 3.75ZM7.5 10C7.33424 10 7.17527 10.0658 7.05806 10.1831C6.94085 10.3003 6.875 10.4592 6.875 10.625C6.875 10.7908 6.94085 10.9497 7.05806 11.0669C7.17527 11.1842 7.33424 11.25 7.5 11.25C7.66576 11.25 7.82473 11.1842 7.94194 11.0669C8.05915 10.9497 8.125 10.7908 8.125 10.625C8.125 10.4592 8.05915 10.3003 7.94194 10.1831C7.82473 10.0658 7.66576 10 7.5 10Z" fill="#FFC266"/>
<path fill-rule="evenodd" clip-rule="evenodd" d="M7.5 1.25C4.04813 1.25 1.25 4.04813 1.25 7.5C1.25 10.9519 4.04813 13.75 7.5 13.75C10.9519 13.75 13.75 10.9519 13.75 7.5C13.75 4.04813 10.9519 1.25 7.5 1.25ZM2.5 7.5C2.5 8.82608 3.02678 10.0979 3.96447 11.0355C4.90215 11.9732 6.17392 12.5 7.5 12.5C8.82608 12.5 10.0979 11.9732 11.0355 11.0355C11.9732 10.0979 12.5 8.82608 12.5 7.5C12.5 6.17392 11.9732 4.90215 11.0355 3.96447C10.0979 3.02678 8.82608 2.5 7.5 2.5C6.17392 2.5 4.90215 3.02678 3.96447 3.96447C3.02678 4.90215 2.5 6.17392 2.5 7.5Z" fill="#FFC266"/>
</svg>
