<svg width="15" height="15" viewBox="0 0 15 15" fill="none" xmlns="http://www.w3.org/2000/svg">
<path d="M7.5 0.9375C6.39362 0.940045 5.30584 1.22224 4.33775 1.75787L5.144 2.32506L6.31685 1.92387L7.03702 2.08852L7.29425 3.54938L7.73663 3.20988L8.94035 2.79838L9.47531 3.61113L8.4259 4.16669L7.76751 4.63989L7.6955 5.29834L6.96507 5.91563L6.75932 6.91359L6.34778 6.94444L6.55353 5.81271L5.00001 5.73047L4.6297 6.27568L4.62677 6.27539V7.05598L5.38333 7.11416L6.08171 7.60884L6.02353 8.35087L7.01288 8.52548L7.00233 8.54774L8.55519 7.65249L11.2177 9.38388L10.6168 10.8062L9.65924 11.3967L7.86794 13.6808L7.47249 13.5682L7.68211 10.6934L6.4454 9.45665L6.67547 9.0506L5.9216 8.7728L5.17963 7.87075L4.5394 7.72523L3.4108 6.09375H3.28125L3.13134 6.87732L3.0247 5.73047L3.179 4.87655L3.1585 4.19751L2.84903 2.87695C1.62642 4.10512 0.939252 5.76704 0.9375 7.5C0.9375 11.1244 3.87563 14.0625 7.5 14.0625C9.91444 14.0617 12.1334 12.7351 13.2772 10.6088L12.9732 8.73457L12.8086 7.6749L11.8107 6.8724L12.0062 5.76129L12.4691 5.1646L13.5694 5.01665C12.5615 2.55135 10.1635 0.939609 7.5 0.9375ZM10.1088 2.34375H10.7812V3.75L9.84375 4.21875V3.52043L10.1088 2.34375ZM6.51231 7.22221L7.38683 7.36629L7.2634 7.55145L6.55353 7.40742L6.51231 7.22221Z" fill="white"/>
</svg>
