<svg width="9" height="15" viewBox="0 0 9 15" fill="none" xmlns="http://www.w3.org/2000/svg">
<path d="M4.5 0.745239C3.44317 0.745918 2.42975 1.1657 1.68199 1.91251C0.935094 2.66052 0.515597 3.67437 0.515625 4.73143C0.516249 5.78774 0.936098 6.80061 1.68296 7.54759C2.05311 7.91733 2.49233 8.21068 2.97565 8.41097L2.98204 8.41367C3.27595 8.53481 3.58321 8.61933 3.89663 8.66729L3.90029 9.22118L3.90949 10.6622H1.8624V11.8341H3.91682L3.9278 13.6761L3.93144 14.2621L5.10331 14.2548L5.09965 13.6688L5.08863 11.8341H7.13757V10.6622H5.08134L5.07217 9.21385L5.06854 8.67274C5.3968 8.62564 5.71789 8.53769 6.02435 8.41094C6.5077 8.21068 6.94695 7.91732 7.3171 7.54756C7.6868 7.17774 7.98016 6.73881 8.18048 6.25578C8.38075 5.77251 8.48402 5.25458 8.4844 4.73146C8.48455 4.2088 8.38128 3.68908 8.18136 3.20618C7.98147 2.72331 7.68753 2.28215 7.31798 1.91254C6.94789 1.54276 6.50866 1.24942 6.02531 1.04922C5.54173 0.848894 5.02347 0.745626 4.50003 0.745298L4.5 0.745239ZM4.5 1.91711C4.86943 1.91755 5.2352 1.99032 5.57666 2.13133C5.91592 2.2719 6.2298 2.48134 6.48943 2.74109C6.74909 3.00081 6.9578 3.31452 7.09822 3.65386C7.23873 3.99312 7.31262 4.36323 7.3125 4.73052C7.31238 5.09761 7.23882 5.46801 7.09825 5.80718C6.95772 6.14629 6.74815 6.45945 6.48853 6.71902C6.22696 6.97986 5.91687 7.187 5.57575 7.32874C5.23649 7.46922 4.86706 7.54203 4.49997 7.54203C4.13288 7.54208 3.76345 7.46922 3.42419 7.32874C3.08308 7.18699 2.77301 6.97985 2.51145 6.71902C2.25182 6.45945 2.04226 6.14626 1.90169 5.80715C1.76115 5.46798 1.68759 5.09758 1.68747 4.73049C1.68735 4.3632 1.76124 3.99309 1.90172 3.65383C2.04217 3.31446 2.25088 3.00075 2.51051 2.74103C2.77017 2.48128 3.08402 2.27184 3.42331 2.13127C3.76477 1.99026 4.13054 1.91747 4.49997 1.91703L4.5 1.91711Z" fill="white"/>
</svg>
