<svg width="13" height="15" viewBox="0 0 13 15" fill="none" xmlns="http://www.w3.org/2000/svg">
<path d="M11.9967 8.20669V12.3289C11.967 13.4024 9.51628 14.2397 6.50005 14.2397C3.48381 14.2397 1.03312 13.3881 1.00336 12.3289V8.20669M3.27546 1.48665C3.50696 2.06275 3.98652 2.78915 3.96998 3.21139C3.97522 3.31172 3.96086 3.41211 3.92785 3.50604C3.89485 3.59997 3.84393 3.68532 3.77841 3.75655C3.71289 3.82777 3.63424 3.88327 3.54759 3.91943C3.46093 3.95559 3.36821 3.97159 3.27546 3.96641C3.1827 3.97159 3.08998 3.95559 3.00332 3.91943C2.91667 3.88327 2.83802 3.82777 2.7725 3.75655C2.70699 3.68532 2.65607 3.59997 2.62306 3.50604C2.59005 3.41211 2.5757 3.31172 2.58093 3.21139C2.56439 2.78915 3.04395 2.06275 3.27876 1.48665H3.27546ZM6.50005 1C6.73487 1.57611 7.21442 2.3025 7.19788 2.72474C7.20364 2.82568 7.18957 2.92679 7.15658 3.02141C7.12359 3.11603 7.07245 3.20201 7.00651 3.27369C6.94057 3.34537 6.86135 3.40111 6.77405 3.43725C6.68675 3.47338 6.59337 3.48909 6.50005 3.48334C6.4075 3.48581 6.31546 3.46786 6.22954 3.43056C6.14363 3.39327 6.06563 3.33742 6.00033 3.26643C5.93502 3.19544 5.88378 3.11079 5.84971 3.01766C5.81565 2.92452 5.79949 2.82486 5.80221 2.72474C5.80221 2.3025 6.26523 1.57611 6.50005 1ZM9.70149 1.48307C9.93631 2.05918 10.4126 2.78557 10.3993 3.20781C10.4025 3.30806 10.3867 3.40796 10.3528 3.50133C10.3189 3.5947 10.2677 3.67956 10.2023 3.75066C10.1369 3.82176 10.0587 3.87759 9.97256 3.9147C9.88642 3.95181 9.79417 3.96941 9.70149 3.96641V3.96641C9.60882 3.96941 9.51656 3.95181 9.43043 3.9147C9.34429 3.87759 9.2661 3.82176 9.2007 3.75066C9.13529 3.67956 9.08406 3.5947 9.05017 3.50133C9.01628 3.40796 9.00045 3.30806 9.00366 3.20781C9.00366 2.78557 9.46668 2.05918 9.70149 1.48307V1.48307Z" stroke="white" stroke-width="0.7" stroke-linecap="round" stroke-linejoin="round"/>
<path d="M12 8.22456C11.9669 9.28374 9.51624 10.1246 6.5 10.1246C3.48376 10.1246 1.03307 9.28374 1.00331 8.22456V8.20667M1 8.20309C1.02977 7.1296 3.48046 6.29228 6.49669 6.29228C9.51293 6.29228 11.9636 7.14391 11.9934 8.20309V8.22098M6.49008 4.19897V7.02225M3.27541 4.68205V7.61983M9.70144 4.68205V7.61983" stroke="white" stroke-width="0.7" stroke-linecap="round" stroke-linejoin="round"/>
</svg>
